<svg width="49" height="48" viewBox="0 0 49 48" fill="none" xmlns="http://www.w3.org/2000/svg">
<g id="icon-park-outline:weixin-market">
<g id="Group">
<path id="Vector" d="M38.5 14H10.5C9.96957 14 9.46086 14.2107 9.08579 14.5858C8.71071 14.9609 8.5 15.4696 8.5 16V42C8.5 42.5304 8.71071 43.0391 9.08579 43.4142C9.46086 43.7893 9.96957 44 10.5 44H38.5C39.0304 44 39.5391 43.7893 39.9142 43.4142C40.2893 43.0391 40.5 42.5304 40.5 42V16C40.5 15.4696 40.2893 14.9609 39.9142 14.5858C39.5391 14.2107 39.0304 14 38.5 14Z" stroke="#3A3A3A" stroke-width="4" stroke-linecap="round" stroke-linejoin="round"/>
<path id="Vector_2" d="M17.5 18V11C17.5 10.0807 17.6811 9.17049 18.0328 8.32122C18.3846 7.47194 18.9002 6.70026 19.5503 6.05025C20.2003 5.40024 20.9719 4.88463 21.8212 4.53284C22.6705 4.18106 23.5807 4 24.5 4C25.4193 4 26.3295 4.18106 27.1788 4.53284C28.0281 4.88463 28.7997 5.40024 29.4497 6.05025C30.0998 6.70026 30.6154 7.47194 30.9672 8.32122C31.3189 9.17049 31.5 10.0807 31.5 11V18" stroke="#3A3A3A" stroke-width="4" stroke-linecap="round" stroke-linejoin="round"/>
</g>
</g>
</svg>
