<svg width="49" height="48" viewBox="0 0 49 48" fill="none" xmlns="http://www.w3.org/2000/svg">
<g id="eos-icons:machine-learning-outlined">
<path id="Vector" d="M42.5 20C35.999 20.3771 29.7466 22.6307 24.5 26.488C19.2534 22.6307 13.0011 20.3771 6.5 20V25.92C5.43736 25.9221 4.41906 26.3461 3.66897 27.0989C2.91888 27.8516 2.49841 28.8714 2.5 29.934V31.942C2.5 34.16 6.5 36.358 6.5 36.358V40.372C11.812 40.7137 16.9349 42.4749 21.334 45.472C22.4448 46.2428 23.5025 47.0874 24.5 48C25.4975 47.0874 26.5552 46.2428 27.666 45.472C32.0651 42.4749 37.188 40.7137 42.5 40.372V35.956C43.5626 35.9539 44.581 35.5299 45.331 34.7771C46.0811 34.0244 46.5016 33.0046 46.5 31.942V29.934C46.5016 28.8714 46.0811 27.8516 45.331 27.0989C44.581 26.3461 43.5626 25.9221 42.5 25.92V20ZM24.5 42.844C20.352 39.8041 15.5629 37.7544 10.5 36.852V24.552C14.3802 25.3337 18.0641 26.8856 21.334 29.116C22.4448 29.8868 23.5025 30.7314 24.5 31.644C25.4975 30.7314 26.5552 29.8868 27.666 29.116C30.9357 26.8849 34.6197 25.3323 38.5 24.55V36.852C33.4371 37.7544 28.648 39.8041 24.5 42.844ZM22.5 16H26.5V18H22.5V16ZM22.5 8H26.5V10H22.5V8Z" fill="#3A3A3A"/>
<path id="Vector_2" d="M22.5 20.0001H26.5V22.0001H22.5V20.0001ZM18.5 10.0001C19.0304 10.0001 19.5392 9.78936 19.9142 9.41428C20.2893 9.03921 20.5 8.5305 20.5 8.00007C20.5019 7.73953 20.4519 7.48122 20.3531 7.24016C20.2542 6.99909 20.1085 6.78008 19.9242 6.59585C19.74 6.41162 19.521 6.26584 19.2799 6.167C19.0389 6.06815 18.7806 6.01821 18.52 6.02007C18.2587 6.01876 17.9997 6.06893 17.7577 6.16772C17.5158 6.26652 17.2957 6.412 17.1099 6.59586C16.7349 6.96718 16.5227 7.47229 16.52 8.00007C16.5174 8.52785 16.7245 9.03507 17.0958 9.41014C17.4671 9.78521 17.9722 9.99742 18.5 10.0001Z" fill="#3A3A3A"/>
<path id="Vector_3" d="M30.5 10C31.6046 10 32.5 9.10457 32.5 8C32.5 6.89543 31.6046 6 30.5 6C29.3954 6 28.5 6.89543 28.5 8C28.5 9.10457 29.3954 10 30.5 10Z" fill="#3A3A3A"/>
<path id="Vector_4" d="M32.5 16H16.5C14.9092 15.9984 13.384 15.3658 12.2591 14.2409C11.1342 13.116 10.5016 11.5908 10.5 10V6C10.5016 4.40919 11.1342 2.88399 12.2591 1.75911C13.384 0.63424 14.9092 0.00158843 16.5 0L32.5 0C34.0908 0.00158843 35.616 0.63424 36.7409 1.75911C37.8658 2.88399 38.4984 4.40919 38.5 6V10C38.4984 11.5908 37.8658 13.116 36.7409 14.2409C35.616 15.3658 34.0908 15.9984 32.5 16ZM16.5 4C15.9697 4.00053 15.4613 4.21141 15.0864 4.58637C14.7114 4.96133 14.5005 5.46973 14.5 6V10C14.5005 10.5303 14.7114 11.0387 15.0864 11.4136C15.4613 11.7886 15.9697 11.9995 16.5 12H32.5C33.0303 11.9995 33.5387 11.7886 33.9136 11.4136C34.2886 11.0387 34.4995 10.5303 34.5 10V6C34.4995 5.46973 34.2886 4.96133 33.9136 4.58637C33.5387 4.21141 33.0303 4.00053 32.5 4H16.5Z" fill="#3A3A3A"/>
</g>
</svg>
