<svg width="49" height="48" viewBox="0 0 49 48" fill="none" xmlns="http://www.w3.org/2000/svg">
<g id="fluent-mdl2:machine-learning" clip-path="url(#clip0_237_490)">
<path id="Vector" d="M46.625 25.6641C47.2188 26.2266 47.6797 26.8828 48.0078 27.6328C48.3359 28.3828 48.5 29.1719 48.5 30C48.5 30.8281 48.3438 31.6016 48.0312 32.3203C47.7188 33.0391 47.2891 33.6797 46.7422 34.2422C46.1953 34.8047 45.5625 35.2344 44.8438 35.5312C44.125 35.8281 43.3438 35.9844 42.5 36C42.1719 36 41.8438 35.9766 41.5156 35.9297L30.4766 41.4375C30.4922 41.5312 30.5 41.625 30.5 41.7188C30.5 41.8125 30.5 41.9062 30.5 42C30.5 42.8281 30.3438 43.6016 30.0312 44.3203C29.7188 45.0391 29.2891 45.6797 28.7422 46.2422C28.1953 46.8047 27.5625 47.2344 26.8438 47.5312C26.125 47.8281 25.3438 47.9844 24.5 48C23.6875 48 22.9219 47.8438 22.2031 47.5312C21.4844 47.2188 20.8438 46.7969 20.2812 46.2656C19.7188 45.7344 19.2812 45.1016 18.9688 44.3672C18.6562 43.6328 18.4922 42.8672 18.4766 42.0703V41.7656C18.4766 41.6719 18.4922 41.5625 18.5234 41.4375L7.48438 35.9297C7.15625 35.9766 6.82812 36 6.5 36C5.67188 36 4.89844 35.8438 4.17969 35.5312C3.46094 35.2188 2.82031 34.7891 2.25781 34.2422C1.69531 33.6953 1.26562 33.0625 0.96875 32.3438C0.671875 31.625 0.515625 30.8438 0.5 30C0.5 28.8906 0.78125 27.8672 1.34375 26.9297C1.90625 25.9922 2.67969 25.2578 3.66406 24.7266L7.76562 9.67969C6.92188 8.60156 6.5 7.375 6.5 6C6.5 5.17188 6.65625 4.39844 6.96875 3.67969C7.28125 2.96094 7.71094 2.32031 8.25781 1.75781C8.80469 1.19531 9.4375 0.765625 10.1562 0.46875C10.875 0.171875 11.6562 0.015625 12.5 0C13.5781 0 14.5781 0.265625 15.5 0.796875C16.4219 1.32812 17.1562 2.0625 17.7031 3H31.2969C31.8438 2.0625 32.5781 1.32812 33.5 0.796875C34.4219 0.265625 35.4219 0 36.5 0C37.3281 0 38.1016 0.15625 38.8203 0.46875C39.5391 0.78125 40.1797 1.21094 40.7422 1.75781C41.3047 2.30469 41.7344 2.9375 42.0312 3.65625C42.3281 4.375 42.4844 5.15625 42.5 6C42.5 6.65625 42.3984 7.28906 42.1953 7.89844C41.9922 8.50781 41.6875 9.07812 41.2812 9.60938L46.625 25.6641ZM36.5 30C36.5 29.1406 36.6719 28.3203 37.0156 27.5391C37.3594 26.7578 37.8594 26.0859 38.5156 25.5234L27.9922 17.625L12.4531 29.2734L12.5 30H36.5ZM12.5 12C11.7656 12 11.0469 11.8672 10.3438 11.6016L6.96875 24.0234C7.82812 24.1016 8.63281 24.3438 9.38281 24.75C10.1328 25.1562 10.7734 25.7031 11.3047 26.3906L25.5078 15.75L17.3047 9.60938C16.7266 10.3594 16.0234 10.9453 15.1953 11.3672C14.3672 11.7891 13.4688 12 12.5 12ZM41.5859 24.0703C41.7109 24.0391 41.8516 24.0234 42.0078 24.0234C42.1641 24.0234 42.3125 24.0156 42.4531 24H42.6875C42.7656 24 42.8438 24.0078 42.9219 24.0234L38.7734 11.5547C38.0078 11.8516 37.25 12 36.5 12C36.1875 12 35.8828 11.9766 35.5859 11.9297L30.5 15.75L41.5859 24.0703ZM36.5 3C36.0781 3 35.6875 3.07812 35.3281 3.23438C34.9688 3.39062 34.6562 3.60156 34.3906 3.86719C34.125 4.13281 33.9062 4.45312 33.7344 4.82812C33.5625 5.20312 33.4844 5.59375 33.5 6C33.5 6.42188 33.5781 6.8125 33.7344 7.17188C33.8906 7.53125 34.1016 7.84375 34.3672 8.10938C34.6328 8.375 34.9531 8.59375 35.3281 8.76562C35.7031 8.9375 36.0938 9.01562 36.5 9C36.9219 9 37.3125 8.92188 37.6719 8.76562C38.0312 8.60938 38.3438 8.39844 38.6094 8.13281C38.875 7.86719 39.0938 7.54688 39.2656 7.17188C39.4375 6.79688 39.5156 6.40625 39.5 6C39.5 5.57812 39.4219 5.1875 39.2656 4.82812C39.1094 4.46875 38.8984 4.15625 38.6328 3.89062C38.3672 3.625 38.0469 3.40625 37.6719 3.23438C37.2969 3.0625 36.9062 2.98438 36.5 3ZM30.5 6H18.5L18.4531 6.72656L27.9922 13.875L32.5156 10.4766C31.8594 9.91406 31.3594 9.24219 31.0156 8.46094C30.6719 7.67969 30.5 6.85938 30.5 6ZM12.5 3C12.0781 3 11.6875 3.07812 11.3281 3.23438C10.9688 3.39062 10.6562 3.60156 10.3906 3.86719C10.125 4.13281 9.90625 4.45312 9.73438 4.82812C9.5625 5.20312 9.48438 5.59375 9.5 6C9.5 6.42188 9.57812 6.8125 9.73438 7.17188C9.89062 7.53125 10.1016 7.84375 10.3672 8.10938C10.6328 8.375 10.9531 8.59375 11.3281 8.76562C11.7031 8.9375 12.0938 9.01562 12.5 9C12.9219 9 13.3125 8.92188 13.6719 8.76562C14.0312 8.60938 14.3438 8.39844 14.6094 8.13281C14.875 7.86719 15.0938 7.54688 15.2656 7.17188C15.4375 6.79688 15.5156 6.40625 15.5 6C15.5 5.57812 15.4219 5.1875 15.2656 4.82812C15.1094 4.46875 14.8984 4.15625 14.6328 3.89062C14.3672 3.625 14.0469 3.40625 13.6719 3.23438C13.2969 3.0625 12.9062 2.98438 12.5 3ZM3.5 30C3.5 30.4219 3.57812 30.8125 3.73438 31.1719C3.89062 31.5312 4.10156 31.8438 4.36719 32.1094C4.63281 32.375 4.95312 32.5938 5.32812 32.7656C5.70312 32.9375 6.09375 33.0156 6.5 33C6.92188 33 7.3125 32.9219 7.67188 32.7656C8.03125 32.6094 8.34375 32.3984 8.60938 32.1328C8.875 31.8672 9.09375 31.5469 9.26562 31.1719C9.4375 30.7969 9.51562 30.4062 9.5 30C9.5 29.5781 9.42188 29.1875 9.26562 28.8281C9.10938 28.4688 8.89844 28.1562 8.63281 27.8906C8.36719 27.625 8.04688 27.4062 7.67188 27.2344C7.29688 27.0625 6.90625 26.9844 6.5 27C6.07812 27 5.6875 27.0781 5.32812 27.2344C4.96875 27.3906 4.65625 27.6016 4.39062 27.8672C4.125 28.1328 3.90625 28.4531 3.73438 28.8281C3.5625 29.2031 3.48438 29.5938 3.5 30ZM24.5 45C24.9219 45 25.3125 44.9219 25.6719 44.7656C26.0312 44.6094 26.3438 44.3984 26.6094 44.1328C26.875 43.8672 27.0938 43.5469 27.2656 43.1719C27.4375 42.7969 27.5156 42.4062 27.5 42C27.5 41.5781 27.4219 41.1875 27.2656 40.8281C27.1094 40.4688 26.8984 40.1562 26.6328 39.8906C26.3672 39.625 26.0469 39.4062 25.6719 39.2344C25.2969 39.0625 24.9062 38.9844 24.5 39C24.0781 39 23.6875 39.0781 23.3281 39.2344C22.9688 39.3906 22.6562 39.6016 22.3906 39.8672C22.125 40.1328 21.9062 40.4531 21.7344 40.8281C21.5625 41.2031 21.4844 41.5938 21.5 42C21.5 42.4219 21.5781 42.8125 21.7344 43.1719C21.8906 43.5312 22.1016 43.8438 22.3672 44.1094C22.6328 44.375 22.9531 44.5938 23.3281 44.7656C23.7031 44.9375 24.0938 45.0156 24.5 45ZM24.5 36C25.4844 36 26.4141 36.2266 27.2891 36.6797C28.1641 37.1328 28.8828 37.7734 29.4453 38.6016L38.2344 34.2188C38.0625 34.0312 37.8984 33.8359 37.7422 33.6328C37.5859 33.4297 37.4375 33.2188 37.2969 33H11.7031C11.5781 33.2188 11.4375 33.4297 11.2812 33.6328C11.125 33.8359 10.9531 34.0312 10.7656 34.2188L19.5547 38.6016C20.1016 37.7891 20.8125 37.1562 21.6875 36.7031C22.5625 36.25 23.5 36.0156 24.5 36ZM42.5 33C42.9219 33 43.3125 32.9219 43.6719 32.7656C44.0312 32.6094 44.3438 32.3984 44.6094 32.1328C44.875 31.8672 45.0938 31.5469 45.2656 31.1719C45.4375 30.7969 45.5156 30.4062 45.5 30C45.5 29.4844 45.375 29 45.125 28.5469C44.875 28.0938 44.5312 27.7344 44.0938 27.4688L44.0703 27.4922L44.0469 27.4688L44.0703 27.4453C43.5703 27.1484 43.0469 27 42.5 27C42.0781 27 41.6875 27.0781 41.3281 27.2344C40.9688 27.3906 40.6562 27.6016 40.3906 27.8672C40.125 28.1328 39.9062 28.4531 39.7344 28.8281C39.5625 29.2031 39.4844 29.5938 39.5 30C39.5 30.4219 39.5781 30.8125 39.7344 31.1719C39.8906 31.5312 40.1016 31.8438 40.3672 32.1094C40.6328 32.375 40.9531 32.5938 41.3281 32.7656C41.7031 32.9375 42.0938 33.0156 42.5 33Z" fill="#3A3A3A"/>
</g>
<defs>
<clipPath id="clip0_237_490">
<rect width="48" height="48" fill="white" transform="translate(0.5)"/>
</clipPath>
</defs>
</svg>
