<svg width="49" height="48" viewBox="0 0 49 48" fill="none" xmlns="http://www.w3.org/2000/svg">
<g id="fa:handshake-o">
<path id="Vector" d="M7 25.6187C7.48611 25.6187 7.82639 25.4209 8.02083 25.0252C8.21528 24.6295 8.21528 24.2338 8.02083 23.8381C7.82639 23.4424 7.48611 23.2446 7 23.2446C6.51389 23.2446 6.17361 23.4424 5.97917 23.8381C5.78472 24.2338 5.78472 24.6295 5.97917 25.0252C6.17361 25.4209 6.51389 25.6187 7 25.6187ZM33.8516 24.5429C33.73 24.3822 33.4961 24.0731 33.1497 23.6155C32.8034 23.158 32.5512 22.8242 32.3932 22.614C32.2352 22.4038 32.0043 22.1008 31.7005 21.7051C31.3967 21.3095 31.1385 20.9818 30.9258 20.7221C30.7131 20.4624 30.467 20.1719 30.1875 19.8504C29.908 19.5289 29.6345 19.2259 29.3672 18.9415L27.0885 21.5382C26.0799 22.7005 24.8129 23.2693 23.2878 23.2446C21.7626 23.2199 20.5139 22.614 19.5417 21.4269C18.849 20.5737 18.5056 19.5969 18.5117 18.4964C18.5178 17.3959 18.8733 16.4252 19.5781 15.5844L22.8047 11.7636C22.5373 11.6276 22.2274 11.5256 21.875 11.4576C21.5226 11.3896 21.2339 11.3525 21.0091 11.3463C20.7843 11.3401 20.441 11.3432 19.9792 11.3556C19.5174 11.3679 19.2196 11.3741 19.0859 11.3741C17.9679 11.3741 17.0078 11.7821 16.2057 12.5982L13.3255 15.5288H10.5V25.6187C10.5608 25.6187 10.6884 25.6156 10.8828 25.6094C11.0773 25.6032 11.2109 25.6032 11.2839 25.6094C11.3568 25.6156 11.4753 25.628 11.6393 25.6465C11.8034 25.6651 11.928 25.6929 12.013 25.73C12.0981 25.7671 12.2044 25.8196 12.332 25.8876C12.4596 25.9556 12.572 26.0391 12.6693 26.138L18.0833 31.5539C19.4809 32.9265 20.8602 33.6127 22.2214 33.6127C23.1693 33.6127 23.9288 33.3222 24.5 32.741C25.1927 32.9883 25.8763 32.9388 26.5508 32.5926C27.2253 32.2464 27.6658 31.7209 27.8724 31.0161C28.7717 31.0903 29.5434 30.8182 30.1875 30.2C30.4306 29.9774 30.6493 29.6961 30.8438 29.356C31.0382 29.016 31.1233 28.7038 31.099 28.4194C31.2205 28.543 31.4818 28.6049 31.8828 28.6049C32.4054 28.6049 32.8733 28.475 33.2865 28.2154C33.6997 27.9557 34.0004 27.628 34.1888 27.2323C34.3772 26.8367 34.4501 26.3946 34.4076 25.9062C34.365 25.4178 34.1797 24.9633 33.8516 24.5429ZM36.75 25.6187H38.5V16.1223H36.8047L33.9427 12.7837C33.1406 11.844 32.1137 11.3741 30.862 11.3741H27.8177C26.7361 11.3741 25.849 11.7883 25.1562 12.6168L21.3464 17.1239C21.0061 17.5319 20.8359 17.9956 20.8359 18.5149C20.8359 19.0343 21 19.498 21.3281 19.906C21.8507 20.5366 22.5191 20.8581 23.3333 20.8705C24.1476 20.8829 24.822 20.5799 25.3568 19.9617L28.875 15.9183C29.1788 15.6339 29.5039 15.501 29.8503 15.5195C30.1966 15.538 30.4822 15.705 30.707 16.0203C30.9319 16.3356 30.9835 16.6849 30.862 17.0682C31.0564 17.3032 31.3967 17.6927 31.8828 18.2367C32.3689 18.7808 32.7335 19.2012 32.9766 19.498C33.329 19.9431 33.8303 20.5954 34.4805 21.4547C35.1306 22.3141 35.5226 22.8365 35.6562 23.022C36.2882 23.8381 36.6528 24.7037 36.75 25.6187ZM42 25.6187C42.4861 25.6187 42.8264 25.4209 43.0208 25.0252C43.2153 24.6295 43.2153 24.2338 43.0208 23.8381C42.8264 23.4424 42.4861 23.2446 42 23.2446C41.5139 23.2446 41.1736 23.4424 40.9792 23.8381C40.7847 24.2338 40.7847 24.6295 40.9792 25.0252C41.1736 25.4209 41.5139 25.6187 42 25.6187ZM45.5 14.9352V26.8057C45.5 27.1272 45.3845 27.4055 45.1536 27.6404C44.9227 27.8753 44.6493 27.9928 44.3333 27.9928H36.4219C36.0938 28.7965 35.5955 29.455 34.9271 29.9681C34.2587 30.4813 33.4991 30.7997 32.6484 30.9233C32.2474 31.5168 31.7582 32.0207 31.181 32.435C30.6037 32.8492 29.9809 33.1305 29.3125 33.2789C28.8021 33.9342 28.1671 34.4381 27.4076 34.7905C26.648 35.1429 25.8672 35.2944 25.0651 35.2449C24.3359 35.6653 23.5703 35.9095 22.7682 35.9776C21.9661 36.0456 21.1914 35.959 20.444 35.7179C19.6966 35.4768 18.9857 35.146 18.3112 34.7256C17.6367 34.3052 17.0078 33.8044 16.4245 33.2232L11.1927 27.9928H4.66667C4.35069 27.9928 4.07726 27.8753 3.84635 27.6404C3.61545 27.4055 3.5 27.1272 3.5 26.8057V14.3417C3.5 14.0202 3.61545 13.742 3.84635 13.5071C4.07726 13.2721 4.35069 13.1547 4.66667 13.1547H12.3411C12.5113 12.9816 12.7969 12.6848 13.1979 12.2644C13.599 11.844 13.8876 11.5472 14.0638 11.3741C14.24 11.201 14.5074 10.9537 14.8659 10.6322C15.2244 10.3107 15.5312 10.0789 15.7865 9.93666C16.0417 9.79446 16.3516 9.6368 16.7161 9.46369C17.0807 9.29058 17.4575 9.17002 17.8464 9.10201C18.2352 9.034 18.6484 9 19.0859 9H21.2188C22.4219 9 23.5217 9.34622 24.5182 10.0387C25.5148 9.34622 26.6146 9 27.8177 9H30.862C31.2873 9 31.6944 9.0371 32.0833 9.11129C32.4722 9.18548 32.8155 9.27512 33.1133 9.38023C33.411 9.48533 33.724 9.64917 34.0521 9.87174C34.3802 10.0943 34.6506 10.286 34.8633 10.4467C35.076 10.6075 35.3372 10.8517 35.6471 11.1793C35.957 11.507 36.194 11.7667 36.3581 11.9583C36.5221 12.15 36.7713 12.4468 37.1055 12.8486C37.4397 13.2505 37.6918 13.5504 37.862 13.7482H44.3333C44.6493 13.7482 44.9227 13.8657 45.1536 14.1006C45.3845 14.3355 45.5 14.6138 45.5 14.9352Z" fill="#3A3A3A"/>
</g>
</svg>
