<svg width="49" height="48" viewBox="0 0 49 48" fill="none" xmlns="http://www.w3.org/2000/svg">
<g id="fluent:connected-16-regular">
<path id="Vector" d="M12.548 14.169C11.29 14.9107 9.80467 15.1682 8.37043 14.8931C6.93619 14.618 5.6515 13.8293 4.75718 12.6748C3.86286 11.5203 3.42031 10.0793 3.51249 8.62179C3.60467 7.16432 4.22524 5.7905 5.25789 4.75785C6.29053 3.72521 7.66435 3.10464 9.12182 3.01246C10.5793 2.92028 12.0203 3.36283 13.1749 4.25715C14.3294 5.15147 15.1181 6.43616 15.3931 7.8704C15.6682 9.30464 15.4107 10.79 14.669 12.048L21.452 18.828C22.3752 18.2833 23.4281 17.9973 24.5 18C25.61 18 26.654 18.303 27.548 18.831L34.328 12.048C33.5862 10.79 33.3288 9.30464 33.6038 7.8704C33.8789 6.43616 34.6676 5.15147 35.8221 4.25715C36.9766 3.36283 38.4177 2.92028 39.8752 3.01246C41.3326 3.10464 42.7064 3.72521 43.7391 4.75785C44.7717 5.7905 45.3923 7.16432 45.4845 8.62179C45.5767 10.0793 45.1341 11.5203 44.2398 12.6748C43.3455 13.8293 42.0608 14.618 40.6265 14.8931C39.1923 15.1682 37.707 14.9107 36.449 14.169L29.669 20.952C30.2157 21.8747 30.5042 22.9274 30.5042 24C30.5042 25.0725 30.2157 26.1253 29.669 27.048L36.452 33.828C37.71 33.0862 39.1953 32.8287 40.6295 33.1038C42.0638 33.3789 43.3485 34.1676 44.2428 35.3221C45.1371 36.4766 45.5797 37.9177 45.4875 39.3751C45.3953 40.8326 44.7747 42.2064 43.7421 43.2391C42.7094 44.2717 41.3356 44.8923 39.8782 44.9845C38.4207 45.0766 36.9796 44.6341 35.8251 43.7398C34.6706 42.8454 33.8819 41.5608 33.6068 40.1265C33.3318 38.6923 33.5892 37.2069 34.331 35.949L27.548 29.169C26.625 29.7146 25.5722 30.0017 24.5 30C23.4278 30.0017 22.3749 29.7146 21.452 29.169L14.672 35.952C15.4137 37.2099 15.6712 38.6953 15.3961 40.1295C15.1211 41.5638 14.3324 42.8484 13.1779 43.7428C12.0233 44.6371 10.5823 45.0796 9.12482 44.9875C7.66735 44.8953 6.29353 44.2747 5.26089 43.2421C4.22824 42.2094 3.60767 40.8356 3.51549 39.3781C3.42331 37.9207 3.86586 36.4796 4.76018 35.3251C5.6545 34.1706 6.93919 33.3819 8.37343 33.1068C9.80767 32.8317 11.293 33.0892 12.551 33.831L19.331 27.048C18.7853 26.125 18.4983 25.0721 18.5 24C18.5 22.89 18.803 21.846 19.331 20.952L12.548 14.169ZM12.5 8.99996C12.5 8.20431 12.1839 7.44124 11.6213 6.87864C11.0587 6.31603 10.2956 5.99996 9.49999 5.99996C8.70434 5.99996 7.94128 6.31603 7.37867 6.87864C6.81606 7.44124 6.49999 8.20431 6.49999 8.99996C6.49999 9.79561 6.81606 10.5587 7.37867 11.1213C7.94128 11.6839 8.70434 12 9.49999 12C10.2956 12 11.0587 11.6839 11.6213 11.1213C12.1839 10.5587 12.5 9.79561 12.5 8.99996ZM12.5 39C12.5 38.2043 12.1839 37.4412 11.6213 36.8786C11.0587 36.316 10.2956 36 9.49999 36C8.70434 36 7.94128 36.316 7.37867 36.8786C6.81606 37.4412 6.49999 38.2043 6.49999 39C6.49999 39.7956 6.81606 40.5587 7.37867 41.1213C7.94128 41.6839 8.70434 42 9.49999 42C10.2956 42 11.0587 41.6839 11.6213 41.1213C12.1839 40.5587 12.5 39.7956 12.5 39ZM39.5 12C40.2956 12 41.0587 11.6839 41.6213 11.1213C42.1839 10.5587 42.5 9.79561 42.5 8.99996C42.5 8.20431 42.1839 7.44124 41.6213 6.87864C41.0587 6.31603 40.2956 5.99996 39.5 5.99996C38.7043 5.99996 37.9413 6.31603 37.3787 6.87864C36.8161 7.44124 36.5 8.20431 36.5 8.99996C36.5 9.79561 36.8161 10.5587 37.3787 11.1213C37.9413 11.6839 38.7043 12 39.5 12ZM42.5 39C42.5 38.2043 42.1839 37.4412 41.6213 36.8786C41.0587 36.316 40.2956 36 39.5 36C38.7043 36 37.9413 36.316 37.3787 36.8786C36.8161 37.4412 36.5 38.2043 36.5 39C36.5 39.7956 36.8161 40.5587 37.3787 41.1213C37.9413 41.6839 38.7043 42 39.5 42C40.2956 42 41.0587 41.6839 41.6213 41.1213C42.1839 40.5587 42.5 39.7956 42.5 39ZM27.5 24C27.5 23.2043 27.1839 22.4412 26.6213 21.8786C26.0587 21.316 25.2956 21 24.5 21C23.7043 21 22.9413 21.316 22.3787 21.8786C21.8161 22.4412 21.5 23.2043 21.5 24C21.5 24.7956 21.8161 25.5587 22.3787 26.1213C22.9413 26.6839 23.7043 27 24.5 27C25.2956 27 26.0587 26.6839 26.6213 26.1213C27.1839 25.5587 27.5 24.7956 27.5 24Z" fill="#3A3A3A"/>
</g>
</svg>
